<?xml version="1.0" standalone="no"?>
<!DOCTYPE svg PUBLIC "-//W3C//DTD SVG 20010904//EN"
 "http://www.w3.org/TR/2001/REC-SVG-20010904/DTD/svg10.dtd">
<svg version="1.0" xmlns="http://www.w3.org/2000/svg"
 width="80.000000pt" height="80.000000pt" viewBox="0 0 80.000000 80.000000"
 preserveAspectRatio="xMidYMid meet">
<metadata>
Created by potrace 1.11, written by Peter Selinger 2001-2013
</metadata>
<g transform="translate(0.000000,80.000000) scale(0.100000,-0.100000)"
fill="#000000" stroke="none">
<path d="M23 775 c-22 -23 -23 -33 -23 -165 0 -133 7 -162 28 -124 8 14 10 14
21 0 11 -13 10 -24 -3 -63 -9 -25 -16 -54 -16 -63 0 -29 57 -104 104 -137 25
-18 54 -50 66 -72 31 -62 59 -70 216 -59 121 8 136 7 185 -12 71 -26 80 -26
114 10 19 19 39 30 57 30 24 0 28 4 28 26 0 25 -2 26 -40 21 -36 -5 -40 -3
-40 16 -1 25 -25 62 -33 50 -17 -27 -18 -83 -2 -113 13 -25 14 -32 4 -28 -8 3
-31 11 -51 19 -21 7 -38 19 -38 27 0 9 -8 12 -27 8 -90 -17 -113 -17 -135 -2
-25 18 -78 22 -78 6 0 -5 18 -10 40 -10 22 0 40 -4 40 -10 0 -12 -70 -13 -89
-1 -9 6 -23 4 -38 -6 -21 -14 -23 -14 -23 5 0 24 -18 38 -31 25 -5 -5 -40 21
-86 66 -44 42 -72 76 -65 79 19 6 14 22 -7 22 -41 0 -41 61 -1 90 17 12 30 30
30 40 0 10 11 32 25 48 31 37 31 42 3 42 -19 0 -20 2 -8 10 8 5 27 10 42 10
15 0 51 13 80 29 55 29 181 54 208 41 8 -4 26 -12 40 -18 14 -5 38 -15 53 -21
15 -6 36 -11 46 -11 15 0 31 -18 31 -35 0 -2 -16 -1 -35 2 -41 7 -42 1 -20
-73 17 -55 20 -115 6 -129 -5 -6 -11 -34 -14 -63 -7 -64 8 -66 37 -6 18 37 18
42 2 119 -21 102 -21 122 -2 106 20 -17 51 -87 66 -150 15 -62 47 -101 85
-101 34 0 32 17 -4 25 -33 7 -34 9 -66 119 -17 57 -21 85 -14 98 5 10 12 18
15 18 15 0 62 -31 67 -45 4 -8 11 -15 17 -15 6 0 10 54 10 150 0 147 -1 152
-25 175 l-24 25 -353 -1 -353 0 -22 -24z"/>
<path d="M389 609 c24 -27 81 -124 81 -136 0 -21 38 -15 45 8 9 29 -2 69 -20
69 -8 0 -15 8 -15 19 0 25 -21 41 -66 48 -32 5 -36 4 -25 -8z"/>
<path d="M270 570 c-9 -6 -10 -10 -3 -10 6 0 15 5 18 10 8 12 4 12 -15 0z"/>
<path d="M214 512 c-12 -2 -32 -14 -44 -27 l-23 -24 39 19 c46 24 58 25 89 4
29 -19 32 -40 8 -66 -16 -18 -16 -18 0 -12 10 3 22 15 28 25 20 38 -43 90 -97
81z"/>
<path d="M170 444 c0 -17 22 -14 28 4 2 7 -3 12 -12 12 -9 0 -16 -7 -16 -16z"/>
<path d="M246 191 c-7 -10 23 -20 42 -14 6 3 10 9 6 14 -7 12 -41 12 -48 0z"/>
</g>
</svg>
